solid csg.js
facet normal -1 0 0
outer loop
vertex -7.5 -7.5 -7.5
vertex -7.5 -7.5 7.5
vertex -7.5 7.5 7.5
endloop
endfacet
facet normal -1 0 0
outer loop
vertex -7.5 -7.5 -7.5
vertex -7.5 7.5 7.5
vertex -7.5 7.5 -7.5
endloop
endfacet
facet normal 1 0 0
outer loop
vertex 7.5 -7.5 -7.5
vertex 7.5 7.5 -7.5
vertex 7.5 7.5 7.5
endloop
endfacet
facet normal 1 0 0
outer loop
vertex 7.5 -7.5 -7.5
vertex 7.5 7.5 7.5
vertex 7.5 -7.5 7.5
endloop
endfacet
facet normal 0 -1 0
outer loop
vertex -7.5 -7.5 -7.5
vertex 7.5 -7.5 -7.5
vertex 7.5 -7.5 7.5
endloop
endfacet
facet normal 0 -1 0
outer loop
vertex -7.5 -7.5 -7.5
vertex 7.5 -7.5 7.5
vertex -7.5 -7.5 7.5
endloop
endfacet
facet normal 0 1 0
outer loop
vertex -7.5 7.5 -7.5
vertex -7.5 7.5 7.5
vertex 7.5 7.5 7.5
endloop
endfacet
facet normal 0 1 0
outer loop
vertex -7.5 7.5 -7.5
vertex 7.5 7.5 7.5
vertex 7.5 7.5 -7.5
endloop
endfacet
facet normal 0 0 -1
outer loop
vertex -7.5 -7.5 -7.5
vertex -7.5 7.5 -7.5
vertex 7.5 7.5 -7.5
endloop
endfacet
facet normal 0 0 -1
outer loop
vertex -7.5 -7.5 -7.5
vertex 7.5 7.5 -7.5
vertex 7.5 -7.5 -7.5
endloop
endfacet
facet normal 0 0 1
outer loop
vertex 7.5 -7.5 7.5
vertex 7.5 -5 7.5
vertex -7.5 -5 7.5
endloop
endfacet
facet normal 0 0 1
outer loop
vertex 7.5 -7.5 7.5
vertex -7.5 -5 7.5
vertex -7.5 -7.5 7.5
endloop
endfacet
facet normal 0 0 1
outer loop
vertex -8.881784197001252e-16 -5 7.5
vertex -1.9134171618254494 -4.619397662556434 7.5
vertex -7.5 -4.619397662556434 7.5
endloop
endfacet
facet normal 0 0 1
outer loop
vertex -8.881784197001252e-16 -5 7.5
vertex -7.5 -4.619397662556434 7.5
vertex -7.5 -5 7.5
endloop
endfacet
facet normal 0 0 1
outer loop
vertex 7.5 -5 7.5
vertex 7.5 -4.619397662556434 7.5
vertex 1.913417161825448 -4.619397662556434 7.5
endloop
endfacet
facet normal 0 0 1
outer loop
vertex 7.5 -5 7.5
vertex 1.913417161825448 -4.619397662556434 7.5
vertex -8.881784197001252e-16 -5 7.5
endloop
endfacet
facet normal 0 0 1
outer loop
vertex -1.9134171618254494 -4.619397662556434 7.5
vertex -3.535533905932739 -3.5355339059327364 7.5
vertex -7.5 -3.5355339059327364 7.5
endloop
endfacet
facet normal 0 0 1
outer loop
vertex -1.9134171618254494 -4.619397662556434 7.5
vertex -7.5 -3.5355339059327364 7.5
vertex -7.5 -4.619397662556434 7.5
endloop
endfacet
facet normal 0 0 1
outer loop
vertex 7.5 -4.619397662556434 7.5
vertex 7.5 -3.5355339059327364 7.5
vertex 3.5355339059327386 -3.5355339059327364 7.5
endloop
endfacet
facet normal 0 0 1
outer loop
vertex 7.5 -4.619397662556434 7.5
vertex 3.5355339059327386 -3.5355339059327364 7.5
vertex 1.913417161825448 -4.619397662556434 7.5
endloop
endfacet
facet normal 0 0 1
outer loop
vertex -3.535533905932739 -3.5355339059327364 7.5
vertex -4.619397662556431 -1.9134171618254525 7.5
vertex -7.5 -1.9134171618254525 7.5
endloop
endfacet
facet normal 0 0 1
outer loop
vertex -3.535533905932739 -3.5355339059327364 7.5
vertex -7.5 -1.9134171618254525 7.5
vertex -7.5 -3.5355339059327364 7.5
endloop
endfacet
facet normal 0 0 1
outer loop
vertex 7.5 -3.5355339059327364 7.5
vertex 7.5 -1.9134171618254525 7.5
vertex 4.619397662556432 -1.9134171618254525 7.5
endloop
endfacet
facet normal 0 0 1
outer loop
vertex 7.5 -3.5355339059327364 7.5
vertex 4.619397662556432 -1.9134171618254525 7.5
vertex 3.5355339059327386 -3.5355339059327364 7.5
endloop
endfacet
facet normal 0 0 1
outer loop
vertex -4.619397662556431 -1.9134171618254525 7.5
vertex -5.000000000000001 -1.7763568394002505e-15 7.5
vertex -7.5 -1.7763568394002505e-15 7.5
endloop
endfacet
facet normal 0 0 1
outer loop
vertex -4.619397662556431 -1.9134171618254525 7.5
vertex -7.5 -1.7763568394002505e-15 7.5
vertex -7.5 -1.9134171618254525 7.5
endloop
endfacet
facet normal 0 0 1
outer loop
vertex 7.5 -1.9134171618254525 7.5
vertex 7.5 -1.7763568394002505e-15 7.5
vertex 4.999999999999999 -1.7763568394002505e-15 7.5
endloop
endfacet
facet normal 0 0 1
outer loop
vertex 7.5 -1.9134171618254525 7.5
vertex 4.999999999999999 -1.7763568394002505e-15 7.5
vertex 4.619397662556432 -1.9134171618254525 7.5
endloop
endfacet
facet normal 0 0 1
outer loop
vertex -5.000000000000001 -1.7763568394002505e-15 7.5
vertex -4.619397662556434 1.913417161825448 7.5
vertex -7.5 1.913417161825448 7.5
endloop
endfacet
facet normal 0 0 1
outer loop
vertex -5.000000000000001 -1.7763568394002505e-15 7.5
vertex -7.5 1.913417161825448 7.5
vertex -7.5 -1.7763568394002505e-15 7.5
endloop
endfacet
facet normal 0 0 1
outer loop
vertex 7.5 -1.7763568394002505e-15 7.5
vertex 7.5 1.913417161825448 7.5
vertex 4.619397662556432 1.913417161825448 7.5
endloop
endfacet
facet normal 0 0 1
outer loop
vertex 7.5 -1.7763568394002505e-15 7.5
vertex 4.619397662556432 1.913417161825448 7.5
vertex 4.999999999999999 -1.7763568394002505e-15 7.5
endloop
endfacet
facet normal 0 0 1
outer loop
vertex -4.619397662556434 1.913417161825448 7.5
vertex -3.5355339059327386 3.5355339059327364 7.5
vertex -7.5 3.5355339059327364 7.5
endloop
endfacet
facet normal 0 0 1
outer loop
vertex -4.619397662556434 1.913417161825448 7.5
vertex -7.5 3.5355339059327364 7.5
vertex -7.5 1.913417161825448 7.5
endloop
endfacet
facet normal 0 0 1
outer loop
vertex 7.5 1.913417161825448 7.5
vertex 7.5 3.5355339059327364 7.5
vertex 3.5355339059327386 3.5355339059327364 7.5
endloop
endfacet
facet normal 0 0 1
outer loop
vertex 7.5 1.913417161825448 7.5
vertex 3.5355339059327386 3.5355339059327364 7.5
vertex 4.619397662556432 1.913417161825448 7.5
endloop
endfacet
facet normal 0 0 1
outer loop
vertex -3.5355339059327386 3.5355339059327364 7.5
vertex -1.91341716182545 4.619397662556432 7.5
vertex -7.5 4.619397662556432 7.5
endloop
endfacet
facet normal 0 0 1
outer loop
vertex -3.5355339059327386 3.5355339059327364 7.5
vertex -7.5 4.619397662556432 7.5
vertex -7.5 3.5355339059327364 7.5
endloop
endfacet
facet normal 0 0 1
outer loop
vertex 7.5 3.5355339059327364 7.5
vertex 7.5 4.619397662556432 7.5
vertex 1.913417161825448 4.619397662556432 7.5
endloop
endfacet
facet normal 0 0 1
outer loop
vertex 7.5 3.5355339059327364 7.5
vertex 1.913417161825448 4.619397662556432 7.5
vertex 3.5355339059327386 3.5355339059327364 7.5
endloop
endfacet
facet normal 0 0 1
outer loop
vertex -1.91341716182545 4.619397662556432 7.5
vertex 0 5 7.5
vertex -7.5 5 7.5
endloop
endfacet
facet normal 0 0 1
outer loop
vertex -1.91341716182545 4.619397662556432 7.5
vertex -7.5 5 7.5
vertex -7.5 4.619397662556432 7.5
endloop
endfacet
facet normal 0 0 1
outer loop
vertex 7.5 4.619397662556432 7.5
vertex 7.5 5 7.5
vertex 0 5 7.5
endloop
endfacet
facet normal 0 0 1
outer loop
vertex 7.5 4.619397662556432 7.5
vertex 0 5 7.5
vertex 1.913417161825448 4.619397662556432 7.5
endloop
endfacet
facet normal 0 0 1
outer loop
vertex 7.5 5 7.5
vertex 7.5 7.5 7.5
vertex -7.5 7.5 7.5
endloop
endfacet
facet normal 0 0 1
outer loop
vertex 7.5 5 7.5
vertex -7.5 7.5 7.5
vertex -7.5 5 7.5
endloop
endfacet
facet normal 0.9807852804032304 -0.19509032201612816 0
outer loop
vertex 4.999999999999999 -1.7763568394002505e-15 7.5
vertex 5 0 20
vertex 4.619397662556434 -1.913417161825449 20
endloop
endfacet
facet normal 0.9807852804032304 -0.19509032201612816 0
outer loop
vertex 4.999999999999999 -1.7763568394002505e-15 7.5
vertex 4.619397662556434 -1.913417161825449 20
vertex 4.619397662556432 -1.9134171618254525 7.5
endloop
endfacet
facet normal 0 0 1
outer loop
vertex 1.9134171618254492 -4.619397662556434 20
vertex 3.5355339059327378 -3.5355339059327373 20
vertex 4.619397662556434 -1.913417161825449 20
endloop
endfacet
facet normal 0 0 1
outer loop
vertex 1.9134171618254492 -4.619397662556434 20
vertex 4.619397662556434 -1.913417161825449 20
vertex 5 0 20
endloop
endfacet
facet normal 0 0 1
outer loop
vertex 1.9134171618254492 -4.619397662556434 20
vertex 5 0 20
vertex 4.619397662556432 1.9134171618254483 20
endloop
endfacet
facet normal 0 0 1
outer loop
vertex 1.9134171618254492 -4.619397662556434 20
vertex 4.619397662556432 1.9134171618254483 20
vertex 3.535533905932737 3.5355339059327373 20
endloop
endfacet
facet normal 0 0 1
outer loop
vertex 1.9134171618254492 -4.619397662556434 20
vertex 3.535533905932737 3.5355339059327373 20
vertex 1.91341716182545 4.619397662556432 20
endloop
endfacet
facet normal 0 0 1
outer loop
vertex 1.9134171618254492 -4.619397662556434 20
vertex 1.91341716182545 4.619397662556432 20
vertex -8.881784197001252e-16 5 20
endloop
endfacet
facet normal 0 0 1
outer loop
vertex 1.9134171618254492 -4.619397662556434 20
vertex -8.881784197001252e-16 5 20
vertex -1.9134171618254516 4.619397662556432 20
endloop
endfacet
facet normal 0 0 1
outer loop
vertex 1.9134171618254492 -4.619397662556434 20
vertex -1.9134171618254516 4.619397662556432 20
vertex -3.5355339059327386 3.5355339059327373 20
endloop
endfacet
facet normal 0 0 1
outer loop
vertex 1.9134171618254492 -4.619397662556434 20
vertex -3.5355339059327386 3.5355339059327373 20
vertex -4.619397662556434 1.9134171618254483 20
endloop
endfacet
facet normal 0 0 1
outer loop
vertex 1.9134171618254492 -4.619397662556434 20
vertex -4.619397662556434 1.9134171618254483 20
vertex -5 0 20
endloop
endfacet
facet normal 0 0 1
outer loop
vertex 1.9134171618254492 -4.619397662556434 20
vertex -5 0 20
vertex -4.619397662556434 -1.913417161825449 20
endloop
endfacet
facet normal 0 0 1
outer loop
vertex 1.9134171618254492 -4.619397662556434 20
vertex -4.619397662556434 -1.913417161825449 20
vertex -3.5355339059327373 -3.5355339059327373 20
endloop
endfacet
facet normal 0 0 1
outer loop
vertex 1.9134171618254492 -4.619397662556434 20
vertex -3.5355339059327373 -3.5355339059327373 20
vertex -1.9134171618254485 -4.619397662556434 20
endloop
endfacet
facet normal 0 0 1
outer loop
vertex 1.9134171618254492 -4.619397662556434 20
vertex -1.9134171618254485 -4.619397662556434 20
vertex 3.061515884555943e-16 -5 20
endloop
endfacet
facet normal 0.8314696123025452 -0.5555702330196024 0
outer loop
vertex 4.619397662556432 -1.9134171618254525 7.5
vertex 4.619397662556434 -1.913417161825449 20
vertex 3.5355339059327378 -3.5355339059327373 20
endloop
endfacet
facet normal 0.8314696123025452 -0.5555702330196024 0
outer loop
vertex 4.619397662556432 -1.9134171618254525 7.5
vertex 3.5355339059327378 -3.5355339059327373 20
vertex 3.5355339059327386 -3.5355339059327364 7.5
endloop
endfacet
facet normal 0.5555702330196024 -0.8314696123025452 0
outer loop
vertex 3.5355339059327386 -3.5355339059327364 7.5
vertex 3.5355339059327378 -3.5355339059327373 20
vertex 1.9134171618254492 -4.619397662556434 20
endloop
endfacet
facet normal 0.5555702330196024 -0.8314696123025452 0
outer loop
vertex 3.5355339059327386 -3.5355339059327364 7.5
vertex 1.9134171618254492 -4.619397662556434 20
vertex 1.913417161825448 -4.619397662556434 7.5
endloop
endfacet
facet normal 0.19509032201612816 -0.9807852804032304 0
outer loop
vertex 1.913417161825448 -4.619397662556434 7.5
vertex 1.9134171618254492 -4.619397662556434 20
vertex 3.061515884555943e-16 -5 20
endloop
endfacet
facet normal 0.19509032201612816 -0.9807852804032304 0
outer loop
vertex 1.913417161825448 -4.619397662556434 7.5
vertex 3.061515884555943e-16 -5 20
vertex -8.881784197001252e-16 -5 7.5
endloop
endfacet
facet normal -0.19509032201612822 -0.9807852804032304 0
outer loop
vertex -8.881784197001252e-16 -5 7.5
vertex 3.061515884555943e-16 -5 20
vertex -1.9134171618254485 -4.619397662556434 20
endloop
endfacet
facet normal -0.19509032201612822 -0.9807852804032304 0
outer loop
vertex -8.881784197001252e-16 -5 7.5
vertex -1.9134171618254485 -4.619397662556434 20
vertex -1.9134171618254494 -4.619397662556434 7.5
endloop
endfacet
facet normal -0.5555702330196023 -0.8314696123025452 0
outer loop
vertex -1.9134171618254494 -4.619397662556434 7.5
vertex -1.9134171618254485 -4.619397662556434 20
vertex -3.5355339059327373 -3.5355339059327373 20
endloop
endfacet
facet normal -0.5555702330196023 -0.8314696123025452 0
outer loop
vertex -1.9134171618254494 -4.619397662556434 7.5
vertex -3.5355339059327373 -3.5355339059327373 20
vertex -3.535533905932739 -3.5355339059327364 7.5
endloop
endfacet
facet normal -0.831469612302545 -0.5555702330196024 0
outer loop
vertex -3.535533905932739 -3.5355339059327364 7.5
vertex -3.5355339059327373 -3.5355339059327373 20
vertex -4.619397662556434 -1.913417161825449 20
endloop
endfacet
facet normal -0.831469612302545 -0.5555702330196024 0
outer loop
vertex -3.535533905932739 -3.5355339059327364 7.5
vertex -4.619397662556434 -1.913417161825449 20
vertex -4.619397662556431 -1.9134171618254525 7.5
endloop
endfacet
facet normal -0.9807852804032304 -0.19509032201612822 0
outer loop
vertex -4.619397662556431 -1.9134171618254525 7.5
vertex -4.619397662556434 -1.913417161825449 20
vertex -5 0 20
endloop
endfacet
facet normal -0.9807852804032304 -0.19509032201612822 0
outer loop
vertex -4.619397662556431 -1.9134171618254525 7.5
vertex -5 0 20
vertex -5.000000000000001 -1.7763568394002505e-15 7.5
endloop
endfacet
facet normal -0.9807852804032304 0.19509032201612816 0
outer loop
vertex -5.000000000000001 -1.7763568394002505e-15 7.5
vertex -5 0 20
vertex -4.619397662556434 1.9134171618254483 20
endloop
endfacet
facet normal -0.9807852804032304 0.19509032201612816 0
outer loop
vertex -5.000000000000001 -1.7763568394002505e-15 7.5
vertex -4.619397662556434 1.9134171618254483 20
vertex -4.619397662556434 1.913417161825448 7.5
endloop
endfacet
facet normal -0.8314696123025456 0.555570233019602 0
outer loop
vertex -4.619397662556434 1.913417161825448 7.5
vertex -4.619397662556434 1.9134171618254483 20
vertex -3.5355339059327386 3.5355339059327373 20
endloop
endfacet
facet normal -0.8314696123025456 0.555570233019602 0
outer loop
vertex -4.619397662556434 1.913417161825448 7.5
vertex -3.5355339059327386 3.5355339059327373 20
vertex -3.5355339059327386 3.5355339059327364 7.5
endloop
endfacet
facet normal -0.5555702330196022 0.8314696123025453 0
outer loop
vertex -3.5355339059327386 3.5355339059327364 7.5
vertex -3.5355339059327386 3.5355339059327373 20
vertex -1.9134171618254516 4.619397662556432 20
endloop
endfacet
facet normal -0.5555702330196022 0.8314696123025453 0
outer loop
vertex -3.5355339059327386 3.5355339059327364 7.5
vertex -1.9134171618254516 4.619397662556432 20
vertex -1.91341716182545 4.619397662556432 7.5
endloop
endfacet
facet normal -0.19509032201612891 0.9807852804032303 0
outer loop
vertex -1.91341716182545 4.619397662556432 7.5
vertex -1.9134171618254516 4.619397662556432 20
vertex -8.881784197001252e-16 5 20
endloop
endfacet
facet normal -0.19509032201612891 0.9807852804032303 0
outer loop
vertex -1.91341716182545 4.619397662556432 7.5
vertex -8.881784197001252e-16 5 20
vertex 0 5 7.5
endloop
endfacet
facet normal 0.19509032201612844 0.9807852804032305 0
outer loop
vertex 0 5 7.5
vertex -8.881784197001252e-16 5 20
vertex 1.91341716182545 4.619397662556432 20
endloop
endfacet
facet normal 0.19509032201612844 0.9807852804032305 0
outer loop
vertex 0 5 7.5
vertex 1.91341716182545 4.619397662556432 20
vertex 1.913417161825448 4.619397662556432 7.5
endloop
endfacet
facet normal 0.5555702330196021 0.8314696123025453 0
outer loop
vertex 1.913417161825448 4.619397662556432 7.5
vertex 1.91341716182545 4.619397662556432 20
vertex 3.535533905932737 3.5355339059327373 20
endloop
endfacet
facet normal 0.5555702330196021 0.8314696123025453 0
outer loop
vertex 1.913417161825448 4.619397662556432 7.5
vertex 3.535533905932737 3.5355339059327373 20
vertex 3.5355339059327386 3.5355339059327364 7.5
endloop
endfacet
facet normal 0.8314696123025452 0.5555702330196025 0
outer loop
vertex 3.5355339059327386 3.5355339059327364 7.5
vertex 3.535533905932737 3.5355339059327373 20
vertex 4.619397662556432 1.9134171618254483 20
endloop
endfacet
facet normal 0.8314696123025452 0.5555702330196025 0
outer loop
vertex 3.5355339059327386 3.5355339059327364 7.5
vertex 4.619397662556432 1.9134171618254483 20
vertex 4.619397662556432 1.913417161825448 7.5
endloop
endfacet
facet normal 0.9807852804032303 0.19509032201612891 0
outer loop
vertex 4.619397662556432 1.913417161825448 7.5
vertex 4.619397662556432 1.9134171618254483 20
vertex 5 0 20
endloop
endfacet
facet normal 0.9807852804032303 0.19509032201612891 0
outer loop
vertex 4.619397662556432 1.913417161825448 7.5
vertex 5 0 20
vertex 4.999999999999999 -1.7763568394002505e-15 7.5
endloop
endfacet
endsolid csg.js
